<?xml version="1.0" encoding="UTF-8" standalone="no"?>
<svg
   width="100%"
   height="100%"
   viewBox="0 0 400 400"
   version="1.1"
   xml:space="preserve"
   style="fill-rule:evenodd;clip-rule:evenodd;stroke-linecap:round;stroke-linejoin:round;stroke-miterlimit:1.5;"
   id="svg8"
   sodipodi:docname="linebender.svg"
   inkscape:version="1.4 (e7c3feb100, 2024-10-09)"
   xmlns:inkscape="http://www.inkscape.org/namespaces/inkscape"
   xmlns:sodipodi="http://sodipodi.sourceforge.net/DTD/sodipodi-0.dtd"
   xmlns="http://www.w3.org/2000/svg"
   xmlns:svg="http://www.w3.org/2000/svg"><sodipodi:namedview
   id="namedview8"
   pagecolor="#ffffff"
   bordercolor="#000000"
   borderopacity="0.25"
   inkscape:showpageshadow="2"
   inkscape:pageopacity="0.0"
   inkscape:pagecheckerboard="0"
   inkscape:deskcolor="#d1d1d1"
   inkscape:zoom="2.9388111"
   inkscape:cx="344.86735"
   inkscape:cy="109.90839"
   inkscape:window-width="1914"
   inkscape:window-height="2083"
   inkscape:window-x="26"
   inkscape:window-y="23"
   inkscape:window-maximized="0"
   inkscape:current-layer="svg8" />
    <g
   transform="matrix(3.2930544,-0.48283581,0.48283581,3.2930544,-858.64149,-8.7491835)"
   id="g2">
            <path
   style="color:#000000;clip-rule:nonzero;fill:url(#_Linear2);fill-rule:nonzero;stroke-linecap:butt;stroke-linejoin:miter;-inkscape-stroke:none"
   d="m 304.06836,72.808594 c -2.52569,-0.245274 -4.77206,1.603236 -5.01758,4.128906 -1.63171,16.795537 -2.46511,34.16264 -1.18555,49.1875 1.27956,15.02486 4.361,27.94893 12.50196,35.6543 5.29856,5.01478 12.06076,6.3167 17.47656,4.31836 5.4158,-1.99835 9.38806,-6.56835 11.55078,-11.96485 2.16273,-5.39649 2.522,-11.86531 -0.0762,-17.87695 -1.27146,-2.9419 -3.28572,-5.6878 -5.98828,-8.07422 4.43839,-1.3194 9.17729,-3.052 12.56445,-6.9707 1.65924,-1.91961 1.44852,-4.82077 -0.4707,-6.48047 -1.91961,-1.65924 -4.82077,-1.44852 -6.48047,0.4707 -1.27274,1.47247 -6.12249,3.75504 -10.50977,4.95313 -2.19363,0.59904 -4.26083,1.03322 -5.76367,1.32422 -0.75142,0.14549 -1.35455,0.25363 -1.8125,0.33984 -0.22897,0.0431 -0.39983,0.0744 -0.66015,0.13477 -0.13017,0.0302 -0.19854,0.0164 -0.72266,0.21875 -0.13103,0.0506 -0.29689,0.11246 -0.58399,0.27148 -0.14354,0.0795 -0.31893,0.18438 -0.55468,0.36328 -0.23575,0.1789 -0.7099,0.66286 -0.90625,0.91406 -0.19635,0.2512 -0.72819,0.99132 -0.90235,2.42774 -0.17416,1.43642 0.50912,2.58683 0.89063,3.05664 0.38151,0.46981 1.02618,1.0329 1.39062,1.24414 0.36445,0.21124 0.62608,0.30703 0.83203,0.37695 l 0.004,0.002 c 6.57767,2.22407 9.72733,5.57819 11.23828,9.07422 1.51095,3.49604 1.32874,7.44826 -0.0195,10.8125 -1.34827,3.36425 -3.85461,5.89588 -6.20117,6.76172 -2.34626,0.86573 -4.63084,0.7949 -7.97656,-2.37109 -4.97903,-4.71262 -8.46488,-15.68061 -9.66407,-29.76172 -1.19918,-14.08111 -0.42355,-31.035148 1.17774,-47.517578 0.24524,-2.526386 -1.6044,-4.773063 -4.13086,-5.017578 z"
   id="path2"
   sodipodi:nodetypes="ccscssscsccssssssszzzsccssscsccc" />
        </g><g
   transform="matrix(3.3282676,0,0,3.3282676,-1104.389,-519.69687)"
   id="g1">
            <path
   style="color:#000000;clip-rule:nonzero;fill:url(#_Linear1);fill-rule:nonzero;stroke-linecap:butt;stroke-linejoin:miter;-inkscape-stroke:none"
   d="m 388.69727,157.95508 c -10.14799,0.21082 -20.34972,8.09724 -21.56836,20.71289 -0.51652,5.34582 -0.31475,12.37688 0.34179,20.38281 0.80117,9.75827 2.26083,20.64693 4.42383,31.19531 -7.47676,6.11246 -14.80034,10.1097 -18.63672,10.77735 a 4.5949998,4.5949998 0 0 0 -3.74023,5.31445 4.5949998,4.5949998 0 0 0 5.31445,3.73828 c 5.85811,-1.01948 12.58006,-4.62182 19.37695,-9.77539 3.43928,13.3195 7.90446,25.21577 14.7461,32.72656 a 4.5949998,4.5949998 0 0 0 6.49219,0.30274 4.5949998,4.5949998 0 0 0 0.30273,-6.49219 c -4.78984,-5.25832 -9.42623,-16.3016 -12.69727,-29.02148 -0.35549,-1.38238 -0.55215,-2.90462 -0.88086,-4.32227 1.95095,-1.86597 3.91298,-3.68872 5.8086,-5.79687 11.02148,-12.25724 20.33568,-28.60504 20.65039,-46.6543 0.12836,-7.36676 -2.04133,-13.34625 -5.83984,-17.35352 -3.79852,-4.00726 -9.01976,-5.83978 -14.09375,-5.73437 z m 0.18945,9.1875 c 2.81425,-0.0585 5.32671,0.85663 7.23437,2.86914 1.90767,2.01251 3.41695,5.32536 3.32032,10.87109 -0.2603,14.92871 -8.29018,29.54343 -18.29493,40.66992 -0.37714,0.41943 -0.79418,0.73781 -1.17773,1.14649 -1.49427,-8.34989 -2.7097,-16.72517 -3.33984,-24.40039 -0.63146,-7.70006 -0.76705,-14.44788 -0.35157,-18.74805 0.79136,-8.19233 6.98088,-12.29127 12.60938,-12.4082 z"
   id="path1" />
        </g>
    <defs
   id="defs8">
        <linearGradient
   id="_Linear1"
   x1="0"
   y1="0"
   x2="1"
   y2="0"
   gradientUnits="userSpaceOnUse"
   gradientTransform="matrix(74.9948,-89.2251,89.2251,74.9948,358.897,253.021)"><stop
     offset="0"
     style="stop-color:rgb(97,121,250);stop-opacity:1"
     id="stop3" /><stop
     offset="0.29"
     style="stop-color:rgb(151,65,236);stop-opacity:1"
     id="stop4" /><stop
     offset="0.5"
     style="stop-color:rgb(175,40,230);stop-opacity:1"
     id="stop5" /><stop
     offset="1"
     style="stop-color:rgb(249,176,222);stop-opacity:1"
     id="stop6" /></linearGradient>
        <linearGradient
   id="_Linear2"
   x1="0"
   y1="0"
   x2="1"
   y2="0"
   gradientUnits="userSpaceOnUse"
   gradientTransform="matrix(-51.7937,10.8273,-10.8273,-51.7937,349.096,118.93)"><stop
     offset="0"
     style="stop-color:rgb(247,147,204);stop-opacity:1"
     id="stop7" /><stop
     offset="1"
     style="stop-color:rgb(163,23,234);stop-opacity:1"
     id="stop8" /></linearGradient>
    
        
        
    </defs>
</svg>
