<?xml version="1.0" encoding="UTF-8" standalone="no"?>
<svg
   viewBox="57.572741 4.905545 974.47545 394.52585"
   version="1.1"
   id="svg10"
   sodipodi:docname="logo.svg"
   width="974.47546"
   height="394.52585"
   inkscape:version="1.4.2 (ebf0e940d0, 2025-05-08)"
   xmlns:inkscape="http://www.inkscape.org/namespaces/inkscape"
   xmlns:sodipodi="http://sodipodi.sourceforge.net/DTD/sodipodi-0.dtd"
   xmlns="http://www.w3.org/2000/svg"
   xmlns:svg="http://www.w3.org/2000/svg">
  <defs
     id="defs10" />
  <sodipodi:namedview
     id="namedview10"
     pagecolor="#ffffff"
     bordercolor="#666666"
     borderopacity="1.0"
     inkscape:showpageshadow="2"
     inkscape:pageopacity="0.0"
     inkscape:pagecheckerboard="0"
     inkscape:deskcolor="#d1d1d1"
     showgrid="false"
     inkscape:clip-to-page="false"
     inkscape:zoom="0.7190464"
     inkscape:cx="337.25223"
     inkscape:cy="-21.556328"
     inkscape:window-width="1914"
     inkscape:window-height="2083"
     inkscape:window-x="26"
     inkscape:window-y="23"
     inkscape:window-maximized="0"
     inkscape:current-layer="svg10" />
  <path
     d="m 178.61646,84.98812 c -8.43567,0.41179 -14.94061,7.583666 -14.5296,16.0194 2.73615,56.09647 8.37726,113.68967 19.8454,162.54953 11.46814,48.85987 27.85571,89.9317 58.38476,111.37513 19.86976,13.95562 42.76661,14.9779 59.63636,5.78234 16.86963,-9.19564 27.744,-26.16284 32.26025,-44.97805 4.51635,-18.81522 2.57617,-40.29082 -8.88257,-58.83298 -5.6073,-9.07391 -13.56616,-17.1438 -23.61816,-23.69751 13.97876,-6.48785 28.7478,-14.48153 38.00976,-29.02145 4.53699,-7.12253 2.44239,-16.57447 -4.67908,-21.11328 -7.12255,-4.53708 -16.57458,-2.44242 -21.11327,4.67904 -3.48023,5.46344 -18.34876,15.32172 -32.21778,21.38541 -6.93445,3.03185 -13.53222,5.45975 -18.3407,7.14367 -2.40429,0.84189 -4.33813,1.48923 -5.80455,1.99424 -0.73317,0.2525 -1.28065,0.43804 -2.1089,0.76257 -0.41394,0.16226 -0.64587,0.14984 -2.27405,1.06924 -0.4071,0.22993 -0.92334,0.51368 -1.79211,1.176 -0.43421,0.33108 -0.96118,0.76113 -1.65112,1.46411 -0.68995,0.70297 -2.0177,2.5256 -2.54297,3.44763 -0.52539,0.92203 -1.91931,3.61609 -1.79932,8.43036 0.12,4.81433 2.92554,8.27277 4.40881,9.63565 1.48304,1.36295 3.87793,2.90592 5.18006,3.42558 1.30212,0.51967 2.20996,0.7088 2.922,0.8396 l 0.0142,0.005 c 22.73437,4.14807 34.72584,13.67257 41.38952,24.45566 6.6637,10.78311 7.9718,23.88592 5.15637,35.61554 -2.81543,11.72967 -9.84655,21.27661 -17.15588,25.26086 -7.30835,3.98376 -14.86572,4.85364 -27.41211,-3.95679 C 241.23011,336.78945 224.45533,302.35435 213.7074,256.56352 202.95948,210.77263 197.32777,154.56761 194.64258,99.516885 194.23035,91.07894 187.05458,84.57359 178.61671,84.98826 Z"
     fill="none"
     opacity="0.2"
     stroke="black"
     stroke-linecap="round"
     stroke-linejoin="round"
     stroke-width="0.7578164633837742"
     id="path1"
     style="opacity:0.6;stroke:#40d24d;stroke-width:3.77953;stroke-dasharray:none;stroke-opacity:1" />
  <path
     d="m 190.08912,6.8095864 c -33.77515,0.7016602 -67.72925,26.9498296 -71.78528,68.9380496 -1.71899,17.792358 -1.04761,41.193604 1.13757,67.839474 2.66663,32.47815 7.52466,68.71851 14.72376,103.82636 -24.88477,20.34388 -49.259522,33.64776 -62.027958,35.86988 -3.99646,0.69457 -7.553224,2.94836 -9.887817,6.26556 -2.334595,3.31719 -3.255737,7.42602 -2.560791,11.42236 1.449584,8.31952 9.368044,13.88958 17.687988,12.44202 19.497436,-3.39314 41.869758,-15.3827 64.491698,-32.53516 11.44678,44.33087 26.30811,83.9248 49.07899,108.92279 2.73132,2.99945 6.54272,4.79089 10.59509,4.9798 4.05249,0.1889 8.01391,-1.23987 11.01257,-3.97223 2.99951,-2.73144 4.79089,-6.54279 4.97986,-10.59516 0.18896,-4.05243 -1.23987,-8.01391 -3.97229,-11.01258 -15.94178,-17.50115 -31.37305,-54.2561 -42.25989,-96.59124 -1.18323,-4.60096 -1.83764,-9.66736 -2.93176,-14.38568 6.4934,-6.21045 13.02343,-12.27704 19.33264,-19.29358 C 224.38587,198.1349 255.38612,143.72505 256.43348,83.6523 256.86072,59.133744 249.63941,39.232377 236.99696,25.895158 224.35438,12.557877 206.97681,6.4588174 190.08912,6.8095864 Z m 0,0 m 0.63061,30.5784916 c 9.36646,-0.194703 17.72876,2.851072 24.07788,9.549255 6.34925,6.698181 11.37244,17.724243 11.05091,36.181947 -0.86634,49.68671 -27.59192,98.32843 -60.89038,135.36035 -1.25525,1.39594 -2.64331,2.45563 -3.9198,3.8158 -4.97339,-27.79065 -9.01856,-55.66584 -11.11597,-81.211 -2.10169,-25.62787 -2.55298,-48.08643 -1.17004,-62.39856 2.63379,-27.266237 23.23413,-40.908632 41.9674,-41.297792 z"
     fill="none"
     opacity="0.2"
     stroke="black"
     stroke-linecap="round"
     stroke-linejoin="round"
     stroke-width="0.7578164633837742"
     id="path2"
     style="opacity:0.6;stroke:#f69e52;stroke-width:3.77953;stroke-dasharray:none;stroke-opacity:1" />
  <path
     d="m 806.9946,174.17168 c -7.61337,13.4537 -16.5178,26.22485 -26.18057,38.02164 1.87997,13.17877 4.04697,26.05297 6.54383,38.47222 h 4e-5 c 2.4993,-2.50016 4.98037,-5.07943 7.42824,-7.80171 6.29746,-7.0036 12.42756,-14.40846 18.26726,-22.17434 h -5e-5 c -2.39625,-14.97261 -4.39715,-30.57825 -6.05875,-46.51781 z"
     fill="#005f73"
     stroke="#000000"
     stroke-linecap="round"
     stroke-linejoin="round"
     stroke-width="0.757816"
     id="path4"
     style="fill:#47d547;fill-opacity:0.99671;stroke-width:3.77953;stroke-dasharray:none" />
  <path
     d="m 867.42874,89.680598 c -0.25222,0 -0.50574,0.0062 -0.76037,0.01863 q -10e-4,8e-5 -0.003,1.4e-4 c -8.43734,0.41324 -14.94084,7.58448 -14.52984,16.019252 1.7577,36.0371 4.71432,72.6919 9.6445,107.2522 h 5e-5 c 9.66278,-11.79676 18.56717,-24.56794 26.18055,-38.0216 h -1e-4 c -2.41595,-23.1743 -4.1149,-47.05445 -5.26928,-70.72123 -0.38718,-7.924802 -6.7403,-14.144962 -14.50174,-14.528622 q -0.001,-6e-5 -0.003,-1.4e-4 c -0.25127,-0.01237 -0.50407,-0.01863 -0.75815,-0.01863 z"
     fill="#005f73"
     stroke="#000000"
     stroke-linecap="round"
     stroke-linejoin="round"
     stroke-width="0.757816"
     id="path8"
     style="fill:#646cdc;fill-opacity:1;stroke-width:3.77953;stroke-dasharray:none" />
  <path
     d="m 1014.8903,205.38572 c -5.0513,0 -9.9953,2.50044 -12.9111,7.0757 -3.48028,5.46344 -18.34878,15.3217 -32.21782,21.3854 -6.93446,3.03183 -13.53222,5.45975 -18.3407,7.14365 -2.40429,0.84192 -4.33816,1.48925 -5.80456,1.99425 -0.73315,0.2525 -1.28064,0.43806 -2.1089,0.7626 -0.4139,0.1622 -0.64586,0.1498 -2.27404,1.0692 -0.4071,0.2299 -0.92336,0.5137 -1.79211,1.176 -0.4342,0.3311 -0.96118,0.76113 -1.65115,1.46414 -0.6899,0.70296 -2.0177,2.52556 -2.54294,3.44763 -0.52539,0.922 -1.91931,3.61609 -1.79932,8.43033 0.12,4.81436 2.92556,8.2728 4.40882,9.63565 1.48304,1.36295 3.87794,2.90595 5.18004,3.4256 1.30213,0.51965 2.21,0.7088 2.922,0.8396 l 0.0142,0.005 c 22.73437,4.14806 34.72583,13.6726 41.38953,24.4557 6.6637,10.78305 7.9718,23.8859 5.15637,35.6155 -2.81543,11.7297 -9.84657,21.2766 -17.15587,25.2609 -3.1988,1.74357 -6.4453,2.8907 -10.1369,2.8907 -4.74276,0 -10.22024,-1.89335 -17.2752,-6.8475 -18.67166,-13.1149 -35.44644,-47.54994 -46.19436,-93.3408 -2.94919,-12.5648 -5.51314,-25.91367 -7.73664,-39.8076 -5.83975,7.7659 -11.9698,15.1707 -18.26727,22.1743 -2.44785,2.7223 -4.92893,5.3016 -7.42819,7.8017 1.14782,5.70944 2.36546,11.32266 3.65696,16.82516 11.46813,48.85984 27.8557,89.9317 58.38476,111.37514 11.40774,8.01225 23.81324,11.7614 35.50304,11.7614 8.67133,0 16.9489,-2.06293 24.1333,-5.97907 16.86965,-9.19568 27.74405,-26.16283 32.26025,-44.97809 4.5164,-18.81518 2.5762,-40.29074 -8.8825,-58.83294 -5.6073,-9.0739 -13.56622,-17.1438 -23.61825,-23.6975 13.97885,-6.48787 28.74785,-14.4816 38.00985,-29.0215 4.537,-7.1225 2.4424,-16.57446 -4.6791,-21.1133 -2.5466,-1.6222 -5.391,-2.3966 -8.2022,-2.3966 z"
     fill="#0a9396"
     stroke="#000000"
     stroke-linecap="round"
     stroke-linejoin="round"
     stroke-width="0.757816"
     id="path9"
     style="fill:#c64221;fill-opacity:1;stroke-width:3.77953;stroke-dasharray:none" />
  <path
     d="m 720.85987,9.5396184 c -0.4591,0 -0.9179,0.0048 -1.37634,0.01428 -33.77516,0.7016596 -67.72926,26.9498396 -71.78526,68.9380396 -1.719,17.79237 -1.0476,41.193612 1.13756,67.839492 2.66664,32.47814 7.52464,68.7185 14.72374,103.82634 -24.88475,20.34386 -49.2595,33.64776 -62.02794,35.86986 -3.99646,0.6946 -7.55323,2.9484 -9.88782,6.2656 -2.33459,3.3172 -3.25574,7.426 -2.56079,11.42234 1.29505,7.43276 7.75342,12.6709 15.04845,12.6709 0.8704,0 1.7527,-0.0746 2.63954,-0.22888 19.49746,-3.39313 41.86976,-15.38266 64.4917,-32.53516 11.44676,44.3309 26.3081,83.9248 49.07896,108.9228 2.73134,2.99945 6.54274,4.7909 10.5951,4.9798 0.238,0.0111 0.47566,0.0166 0.7128,0.0166 0.2381,0 0.4757,-0.006 0.71256,-0.0166 3.54608,-0.1654 6.94141,-1.5614 9.58724,-3.97224 2.9995,-2.73146 4.7909,-6.54276 4.97984,-10.59516 0.18896,-4.0524 -1.23984,-8.0139 -3.97229,-11.01256 -15.94175,-17.50114 -31.37305,-54.25611 -42.25989,-96.59124 -1.18323,-4.60096 -1.83766,-9.66737 -2.93176,-14.3857 3.9741,-3.8009 7.9619,-7.54797 11.9044,-11.4919 h -4e-5 c -2.49686,-12.4192 -4.66386,-25.29343 -6.54383,-38.4722 -2.86248,3.4947 -5.7915,6.90387 -8.77323,10.2199 -1.25527,1.39594 -2.6433,2.45563 -3.9198,3.8158 -4.9734,-27.79065 -9.0186,-55.6658 -11.116,-81.211 -2.1017,-25.62786 -2.55297,-48.086412 -1.17,-62.398552 2.63376,-27.26624 23.2341,-40.90864 41.9674,-41.29779 h 0.9398 c 9.42175,0.18351 17.1694,3.25251 23.13806,9.54925 6.34924,6.6982 11.37244,17.72425 11.0509,36.18196 -0.52692,30.218312 -10.61856,60.050102 -25.93656,87.118832 1.6616,15.93957 3.6625,31.54516 6.05875,46.5178 h 5e-5 c 28.17634,-37.4697 49.59517,-83.3439 50.4627,-133.103612 0.42727,-24.51856 -6.79405,-44.41993 -19.4365,-57.75715 -12.2994,-12.97523 -29.08014,-19.0998496 -45.5315,-19.0998496 z m 0.1941,30.5927696 q 0.73486,-0.0044 -0.1,-0.0088 0.83486,0.0044 0.1,0.0088 z"
     fill="#005f73"
     stroke="#000000"
     stroke-linecap="round"
     stroke-linejoin="round"
     stroke-width="0.757816"
     id="path10"
     style="fill:#f69d52;fill-opacity:1;stroke-width:3.77953;stroke-dasharray:none" />
  <g
     id="path11"
     style="opacity:1;fill:#ffffff;fill-opacity:0.99917746;stroke-width:1.88976378;stroke-dasharray:none;stroke:#000000;stroke-opacity:1">
    <path
       style="baseline-shift:baseline;display:inline;overflow:visible;enable-background:accumulate;stop-color:#000000;stop-opacity:1;fill:#ffffff;fill-opacity:0.99917746;stroke-width:1.88976378;stroke-dasharray:none;stroke:#000000;stroke-opacity:1"
       d="m 382.09375,175.41797 v 18.89844 l 113.3348,0 v -18.89844 z"
       id="path13"
       sodipodi:nodetypes="ccccc" />
    <g
       id="g12"
       style="fill:#ffffff;fill-opacity:0.99917746;stroke-width:1.88976378;stroke-dasharray:none;stroke:#000000;stroke-opacity:1">
      <path
         style="baseline-shift:baseline;display:inline;overflow:visible;fill-rule:evenodd;enable-background:accumulate;stop-color:#000000;stop-opacity:1;opacity:1;fill:#ffffff;fill-opacity:0.99917746;stroke-width:1.88976378;stroke-dasharray:none;stroke:#000000;stroke-opacity:1"
         d="m 485.07422,121.24805 v 127.23828 l 110.0625,-63.61914 z m 18.89648,32.74804 53.4043,30.8711 -53.4043,30.86914 z"
         id="path12" />
    </g>
  </g>
</svg>
